<svg width="29" height="29" viewBox="0 0 29 29" fill="none" xmlns="http://www.w3.org/2000/svg">
<path d="M8.39689 19.0035C8.5141 19.1207 8.67307 19.1866 8.83884 19.1866C9.0046 19.1866 9.16357 19.1207 9.28078 19.0035L17.9366 10.3477L17.9366 14.1413C17.9395 14.3051 18.0066 14.4613 18.1235 14.5762C18.2404 14.6911 18.3977 14.7554 18.5616 14.7554C18.7254 14.7554 18.8828 14.6911 18.9996 14.5762C19.1165 14.4613 19.1836 14.3051 19.1865 14.1413L19.1865 8.83798C19.1867 8.75643 19.1708 8.67563 19.1397 8.60024C19.1086 8.52486 19.0629 8.45636 19.0053 8.39869L19.0035 8.39692C18.946 8.33947 18.8771 8.29351 18.8002 8.26257C18.7246 8.23102 18.6435 8.21479 18.5616 8.21484L13.2583 8.21484C13.0944 8.21769 12.9382 8.28478 12.8233 8.40166C12.7085 8.51854 12.6441 8.67587 12.6441 8.83975C12.6441 9.00362 12.7085 9.16095 12.8233 9.27783C12.9382 9.39471 13.0944 9.4618 13.2583 9.46465L17.0528 9.46377L8.39689 18.1196C8.27968 18.2368 8.21384 18.3958 8.21384 18.5616C8.21384 18.7273 8.27968 18.8863 8.39689 19.0035Z" fill="black"/>
</svg>
