<svg xmlns="http://www.w3.org/2000/svg" width="50" height="50" viewBox="0 0 50 50" fill="none">
<path d="M14.6946 33.2561C14.8997 33.4612 15.1779 33.5764 15.468 33.5764C15.7581 33.5764 16.0363 33.4612 16.2414 33.2561L31.3892 18.1083L31.3892 24.7472C31.3941 25.0339 31.5115 25.3072 31.7161 25.5083C31.9206 25.7093 32.196 25.8219 32.4827 25.8219C32.7695 25.8219 33.0448 25.7093 33.2494 25.5083C33.4539 25.3072 33.5713 25.0339 33.5763 24.7472L33.5763 15.4664C33.5767 15.3237 33.5489 15.1823 33.4945 15.0504C33.4401 14.9184 33.3601 14.7986 33.2592 14.6976L33.2561 14.6945C33.1556 14.594 33.0349 14.5136 32.9004 14.4594C32.7681 14.4042 32.6261 14.3758 32.4827 14.3759L23.202 14.3759C22.9152 14.3809 22.6419 14.4983 22.4409 14.7028C22.2399 14.9074 22.1272 15.1827 22.1272 15.4695C22.1272 15.7563 22.2399 16.0316 22.4409 16.2361C22.6419 16.4407 22.9152 16.5581 23.202 16.5631L29.8424 16.5615L14.6946 31.7093C14.4895 31.9144 14.3742 32.1926 14.3742 32.4827C14.3742 32.7728 14.4895 33.051 14.6946 33.2561Z" fill="black"/>
</svg>