<svg width="40" height="40" viewBox="0 0 40 40" fill="none" xmlns="http://www.w3.org/2000/svg">
<g clip-path="url(#clip0_6_19)">
<path d="M35 27.7064V12.2935C35 12.0718 34.941 11.8539 34.829 11.6625C34.717 11.471 34.5561 11.3128 34.3628 11.2041L20.6128 3.4697C20.4257 3.36446 20.2147 3.30917 20 3.30917C19.7853 3.30917 19.5743 3.36446 19.3872 3.4697L5.63717 11.2041C5.44386 11.3128 5.28296 11.471 5.17099 11.6625C5.05902 11.8539 5 12.0718 5 12.2935V27.7064C5 27.9282 5.05901 28.146 5.17099 28.3375C5.28296 28.5289 5.44386 28.6872 5.63717 28.7959L19.3872 36.5303C19.5743 36.6355 19.7853 36.6908 20 36.6908C20.2147 36.6908 20.4257 36.6355 20.6128 36.5303L34.3628 28.7959C34.5561 28.6872 34.717 28.5289 34.829 28.3375C34.941 28.146 35 27.9282 35 27.7064Z" stroke="white" stroke-linecap="round" stroke-linejoin="round"/>
<path d="M34.8276 11.6603L20.1483 20L5.1731 11.6589" stroke="white" stroke-linecap="round" stroke-linejoin="round"/>
<path d="M20.1483 20L20.0016 36.6908" stroke="white" stroke-linecap="round" stroke-linejoin="round"/>
</g>
<defs>
<clipPath id="clip0_6_19">
<rect width="40" height="40" fill="white"/>
</clipPath>
</defs>
</svg>
