<svg width="35" height="35" viewBox="0 0 35 35" fill="none" xmlns="http://www.w3.org/2000/svg">
<g clip-path="url(#clip0_6_29)">
<path d="M1.41421 17.5L17.5 1.41421L33.5858 17.5L17.5 33.5858L1.41421 17.5Z" stroke="white" stroke-width="2"/>
<path d="M24.4973 15.9128L24.4884 15.9592V15.9792L24.4613 15.9934L24.406 16.05L21.3334 19.1944L21.156 19.3759L21.1978 19.6263L21.9469 24.1047C21.977 24.299 21.8694 24.4273 21.772 24.4678H21.7719H21.7717H21.7714H21.7712H21.771H21.7708H21.7705H21.7703H21.7701H21.7699H21.7697H21.7694H21.7692H21.769H21.7688H21.7686H21.7683H21.7681H21.7679H21.7677H21.7675H21.7672H21.767H21.7668H21.7666H21.7664H21.7661H21.7659H21.7657H21.7655H21.7653H21.765H21.7648H21.7646H21.7644H21.7642H21.7639H21.7637H21.7635H21.7633H21.7631H21.7628H21.7626H21.7624H21.7622H21.762H21.7617H21.7615H21.7613H21.7611H21.7609H21.7606H21.7604H21.7602H21.76H21.7598H21.7595H21.7593H21.7591H21.7589H21.7586H21.7584H21.7582H21.758H21.7577H21.7575H21.7573H21.7571H21.7568H21.7566H21.7564H21.7562H21.7559H21.7557H21.7555H21.7553H21.755H21.7548H21.7546H21.7544H21.7541H21.7539H21.7537H21.7534H21.7532H21.753H21.7527H21.7525H21.7523H21.752H21.7518H21.7516H21.7513H21.7511H21.7509H21.7506H21.7504H21.7502H21.7499H21.7497H21.7495H21.7492H21.749H21.7487H21.7485H21.7483H21.748H21.7478H21.7475H21.7473H21.7471H21.7468H21.7466H21.7463H21.7461H21.7458H21.7456H21.7454H21.7451H21.7449H21.7446H21.7444H21.7441H21.7439H21.7436H21.7434H21.7431H21.7429H21.7426H21.7423H21.7421H21.7418H21.7416H21.7413H21.7411H21.7408H21.7405H21.7403H21.74H21.7398H21.7395H21.7392H21.739H21.7387H21.7384H21.7382H21.7379H21.7376H21.7374H21.7371H21.7368H21.7366H21.7363H21.736H21.7358H21.7355H21.7352H21.7349H21.7347H21.7344H21.7341H21.7338H21.7335H21.7333H21.733H21.7327H21.7324H21.7321H21.7318H21.7316H21.7313H21.731H21.7307H21.7304H21.7301H21.7298H21.7295H21.7292H21.7289H21.7286H21.7283H21.728H21.7277H21.7274H21.7271H21.7268H21.7265H21.7262H21.7259H21.7256H21.7253H21.725H21.7247H21.7244H21.7241H21.7237H21.7234H21.7231H21.7228H21.7225H21.7222H21.7218H21.7215H21.7212H21.7209H21.7205H21.7202H21.7199H21.7196H21.7192H21.7189H21.7186H21.7182H21.7179H21.7176H21.7172H21.7169H21.7165H21.7162H21.7159H21.7155H21.7152H21.7148H21.7145H21.7141H21.7138H21.7134H21.7131H21.7127H21.7124H21.712H21.7117H21.7113H21.7109H21.7106H21.7102H21.7098H21.7095H21.7091H21.7087H21.7084H21.708H21.7076H21.7072H21.7069H21.7065H21.7061H21.7057H21.7053H21.705H21.7046H21.7042H21.7038H21.7034H21.703H21.7026H21.7022H21.7018H21.7014H21.701H21.7006H21.7002H21.6998H21.6994H21.699H21.6986H21.6982H21.6978H21.6974H21.697H21.6965H21.6961H21.6957H21.6953H21.6949H21.6944H21.694H21.6936H21.6932H21.6927H21.6923H21.6919H21.6914H21.691C21.6519 24.4678 21.623 24.4678 21.5966 24.4669C21.5924 24.4667 21.5884 24.4666 21.5848 24.4664L21.559 24.4521L17.737 22.3296L17.4942 22.1948L17.2515 22.3296L13.4294 24.4521L13.4174 24.4587L13.4058 24.466C13.3453 24.5041 13.2918 24.5067 13.2414 24.4909C13.1888 24.4743 13.1221 24.4304 13.0679 24.3447C13.0548 24.3099 13.0491 24.263 13.0482 24.1437L13.7906 19.7049L13.8325 19.4545L13.6551 19.273L10.585 16.1313C10.4711 16.0102 10.4717 15.8433 10.5867 15.7226L10.6418 15.6648L10.6525 15.6423C10.6589 15.642 10.6661 15.6417 10.6745 15.6417H10.7111L10.7473 15.6364L15.019 15.0075L15.2876 14.968L15.4007 14.7212L17.2633 10.6576C17.3177 10.5704 17.3851 10.5259 17.4382 10.5091C17.4886 10.4933 17.542 10.4959 17.6026 10.534L17.6193 10.5445L17.6367 10.5536C17.6593 10.5654 17.6717 10.5735 17.6781 10.578C17.6812 10.5803 17.683 10.5817 17.6838 10.5824L17.685 10.5836L17.6866 10.5854C17.6875 10.5866 17.6892 10.5889 17.6918 10.5928C17.697 10.6009 17.7054 10.6153 17.7174 10.6404L19.6659 14.728L19.7806 14.9687L20.0444 15.0075L24.3161 15.6364L24.3523 15.6417H24.3793C24.3872 15.6454 24.4112 15.6593 24.4425 15.7059C24.4935 15.7816 24.5063 15.8657 24.4973 15.9128Z" stroke="white"/>
</g>
<defs>
<clipPath id="clip0_6_29">
<rect width="35" height="35" fill="white"/>
</clipPath>
</defs>
</svg>
