<svg width="85" height="85" viewBox="0 0 85 85" fill="none" xmlns="http://www.w3.org/2000/svg">
<path d="M25.1907 57.0815C25.5423 57.4331 26.0192 57.6307 26.5165 57.6307C27.0138 57.6307 27.4907 57.4331 27.8423 57.0815L53.8099 31.1139L53.8099 42.4948C53.8185 42.9863 54.0198 43.4549 54.3704 43.7995C54.7211 44.1441 55.193 44.3372 55.6847 44.3372C56.1763 44.3372 56.6483 44.1441 56.9989 43.7995C57.3496 43.4549 57.5508 42.9863 57.5594 42.4948L57.5594 26.5849C57.5601 26.3402 57.5124 26.0979 57.4191 25.8717C57.3258 25.6455 57.1888 25.44 57.0158 25.267L57.0105 25.2617C56.8381 25.0894 56.6313 24.9515 56.4006 24.8587C56.1738 24.764 55.9304 24.7153 55.6847 24.7155L39.7748 24.7155C39.2832 24.724 38.8147 24.9253 38.47 25.2759C38.1254 25.6266 37.9323 26.0986 37.9323 26.5902C37.9323 27.0818 38.1254 27.5538 38.47 27.9044C38.8147 28.2551 39.2832 28.4564 39.7748 28.4649L51.1583 28.4623L25.1907 54.4299C24.839 54.7815 24.6415 55.2584 24.6415 55.7557C24.6415 56.253 24.839 56.7299 25.1907 57.0815Z" fill="white"/>
</svg>
