<svg width="40" height="40" viewBox="0 0 40 40" fill="none" xmlns="http://www.w3.org/2000/svg">
<path d="M3.74999 14.0869L19.5833 23.221C19.7099 23.2946 19.8536 23.3333 20 23.3333C20.1464 23.3333 20.2901 23.2946 20.4167 23.221L36.25 14.0869C36.3766 14.0138 36.4817 13.9086 36.5549 13.782C36.7852 13.3834 36.6486 12.8735 36.25 12.6432L20.4167 3.51724C20.1582 3.37076 19.8418 3.37076 19.5833 3.51724L3.74999 12.6432C3.62334 12.7164 3.51826 12.8215 3.44512 12.9481C3.21481 13.3468 3.35132 13.8566 3.74999 14.0869ZM20 5.20181L34.165 13.3659L20 21.5381L5.83495 13.3659L20 5.20181ZM35.4133 25.8773L20 34.8682L4.58647 25.8773C4.18913 25.6453 3.67908 25.7794 3.44715 26.1767C3.21522 26.5741 3.34929 27.0841 3.74663 27.3161L19.58 36.5527C19.7073 36.6275 19.8523 36.6669 20 36.6667C20.1476 36.6669 20.2925 36.6275 20.4198 36.5527L36.2531 27.3161C36.6505 27.0841 36.7846 26.5741 36.5526 26.1767C36.3207 25.7794 35.8106 25.6453 35.4133 25.8773ZM35.4133 19.2106L20 28.2015L4.58647 19.2106C4.18913 18.9787 3.67908 19.1127 3.44715 19.5101C3.21522 19.9074 3.34929 20.4175 3.74663 20.6494L19.58 29.8861C19.7073 29.9608 19.8523 30.0002 20 30C20.1476 30.0002 20.2925 29.9608 20.4198 29.8861L36.2531 20.6494C36.6505 20.4175 36.7846 19.9074 36.5526 19.5101C36.3207 19.1127 35.8106 18.9787 35.4133 19.2106Z" fill="white"/>
</svg>
